<mxfile host="app.diagrams.net" modified="2023-11-18T09:54:13.457Z" agent="Mozilla/5.0 (Windows NT 10.0; Win64; x64) AppleWebKit/537.36 (KHTML, like Gecko) Chrome/119.0.0.0 Safari/537.36" etag="IznuW_Ltfeb-982y51ss" version="22.1.3" type="device">
  <diagram id="C5RBs43oDa-KdzZeNtuy" name="Page-1">
    <mxGraphModel dx="1782" dy="2813" grid="1" gridSize="10" guides="1" tooltips="1" connect="1" arrows="1" fold="1" page="1" pageScale="1" pageWidth="827" pageHeight="1169" math="0" shadow="0">
      <root>
        <mxCell id="WIyWlLk6GJQsqaUBKTNV-0" />
        <mxCell id="WIyWlLk6GJQsqaUBKTNV-1" parent="WIyWlLk6GJQsqaUBKTNV-0" />
        <mxCell id="Q0Zz0vdiJcVVRRVcLZJk-72" style="edgeStyle=orthogonalEdgeStyle;rounded=0;orthogonalLoop=1;jettySize=auto;html=1;exitX=1;exitY=0;exitDx=0;exitDy=0;entryX=0.5;entryY=1;entryDx=0;entryDy=0;startArrow=diamondThin;startFill=1;endArrow=none;endFill=0;startSize=12;" parent="WIyWlLk6GJQsqaUBKTNV-1" source="zkfFHV4jXpPFQw0GAbJ--6" target="Q0Zz0vdiJcVVRRVcLZJk-40" edge="1">
          <mxGeometry relative="1" as="geometry">
            <Array as="points">
              <mxPoint x="520" y="-1043" />
              <mxPoint x="520" y="-1094" />
              <mxPoint x="710" y="-1094" />
            </Array>
          </mxGeometry>
        </mxCell>
        <mxCell id="zkfFHV4jXpPFQw0GAbJ--6" value="Perdoruesi" style="swimlane;fontStyle=0;align=center;verticalAlign=top;childLayout=stackLayout;horizontal=1;startSize=26;horizontalStack=0;resizeParent=1;resizeLast=0;collapsible=1;marginBottom=0;rounded=0;shadow=0;strokeWidth=1;" parent="WIyWlLk6GJQsqaUBKTNV-1" vertex="1">
          <mxGeometry x="290" y="-1043" width="160" height="160" as="geometry">
            <mxRectangle x="130" y="380" width="160" height="26" as="alternateBounds" />
          </mxGeometry>
        </mxCell>
        <mxCell id="zkfFHV4jXpPFQw0GAbJ--7" value="+ emri: String" style="text;align=left;verticalAlign=top;spacingLeft=4;spacingRight=4;overflow=hidden;rotatable=0;points=[[0,0.5],[1,0.5]];portConstraint=eastwest;" parent="zkfFHV4jXpPFQw0GAbJ--6" vertex="1">
          <mxGeometry y="26" width="160" height="26" as="geometry" />
        </mxCell>
        <mxCell id="zkfFHV4jXpPFQw0GAbJ--8" value="+ mbiemri: String" style="text;align=left;verticalAlign=top;spacingLeft=4;spacingRight=4;overflow=hidden;rotatable=0;points=[[0,0.5],[1,0.5]];portConstraint=eastwest;rounded=0;shadow=0;html=0;" parent="zkfFHV4jXpPFQw0GAbJ--6" vertex="1">
          <mxGeometry y="52" width="160" height="26" as="geometry" />
        </mxCell>
        <mxCell id="zkfFHV4jXpPFQw0GAbJ--10" value="+ dataRegjistrimit: String" style="text;align=left;verticalAlign=top;spacingLeft=4;spacingRight=4;overflow=hidden;rotatable=0;points=[[0,0.5],[1,0.5]];portConstraint=eastwest;fontStyle=4" parent="zkfFHV4jXpPFQw0GAbJ--6" vertex="1">
          <mxGeometry y="78" width="160" height="26" as="geometry" />
        </mxCell>
        <mxCell id="zkfFHV4jXpPFQw0GAbJ--11" value="+ roli: String" style="text;align=left;verticalAlign=top;spacingLeft=4;spacingRight=4;overflow=hidden;rotatable=0;points=[[0,0.5],[1,0.5]];portConstraint=eastwest;" parent="zkfFHV4jXpPFQw0GAbJ--6" vertex="1">
          <mxGeometry y="104" width="160" height="26" as="geometry" />
        </mxCell>
        <mxCell id="qlR7j_K9BmZmSB4jI-02-123" value="+ tipi llogaris: String" style="text;align=left;verticalAlign=top;spacingLeft=4;spacingRight=4;overflow=hidden;rotatable=0;points=[[0,0.5],[1,0.5]];portConstraint=eastwest;" parent="zkfFHV4jXpPFQw0GAbJ--6" vertex="1">
          <mxGeometry y="130" width="160" as="geometry" />
        </mxCell>
        <mxCell id="qlR7j_K9BmZmSB4jI-02-0" value="Aplikanti" style="swimlane;fontStyle=0;childLayout=stackLayout;horizontal=1;startSize=26;fillColor=none;horizontalStack=0;resizeParent=1;resizeParentMax=0;resizeLast=0;collapsible=1;marginBottom=0;whiteSpace=wrap;html=1;" parent="WIyWlLk6GJQsqaUBKTNV-1" vertex="1">
          <mxGeometry x="19" y="-1080" width="140" height="238" as="geometry" />
        </mxCell>
        <mxCell id="qlR7j_K9BmZmSB4jI-02-1" value="+&amp;nbsp;emri: String" style="text;strokeColor=none;fillColor=none;align=left;verticalAlign=top;spacingLeft=4;spacingRight=4;overflow=hidden;rotatable=0;points=[[0,0.5],[1,0.5]];portConstraint=eastwest;whiteSpace=wrap;html=1;" parent="qlR7j_K9BmZmSB4jI-02-0" vertex="1">
          <mxGeometry y="26" width="140" height="26" as="geometry" />
        </mxCell>
        <mxCell id="qlR7j_K9BmZmSB4jI-02-2" value="+&amp;nbsp;mbiemri: String" style="text;strokeColor=none;fillColor=none;align=left;verticalAlign=top;spacingLeft=4;spacingRight=4;overflow=hidden;rotatable=0;points=[[0,0.5],[1,0.5]];portConstraint=eastwest;whiteSpace=wrap;html=1;" parent="qlR7j_K9BmZmSB4jI-02-0" vertex="1">
          <mxGeometry y="52" width="140" height="26" as="geometry" />
        </mxCell>
        <mxCell id="qlR7j_K9BmZmSB4jI-02-3" value="+&amp;nbsp;adresa: String" style="text;strokeColor=none;fillColor=none;align=left;verticalAlign=top;spacingLeft=4;spacingRight=4;overflow=hidden;rotatable=0;points=[[0,0.5],[1,0.5]];portConstraint=eastwest;whiteSpace=wrap;html=1;" parent="qlR7j_K9BmZmSB4jI-02-0" vertex="1">
          <mxGeometry y="78" width="140" height="26" as="geometry" />
        </mxCell>
        <mxCell id="qlR7j_K9BmZmSB4jI-02-4" value="+&amp;nbsp;kontaktet: String" style="text;strokeColor=none;fillColor=none;align=left;verticalAlign=top;spacingLeft=4;spacingRight=4;overflow=hidden;rotatable=0;points=[[0,0.5],[1,0.5]];portConstraint=eastwest;whiteSpace=wrap;html=1;" parent="qlR7j_K9BmZmSB4jI-02-0" vertex="1">
          <mxGeometry y="104" width="140" height="26" as="geometry" />
        </mxCell>
        <mxCell id="qlR7j_K9BmZmSB4jI-02-5" value="+&amp;nbsp;eksperienca: String" style="text;strokeColor=none;fillColor=none;align=left;verticalAlign=top;spacingLeft=4;spacingRight=4;overflow=hidden;rotatable=0;points=[[0,0.5],[1,0.5]];portConstraint=eastwest;whiteSpace=wrap;html=1;" parent="qlR7j_K9BmZmSB4jI-02-0" vertex="1">
          <mxGeometry y="130" width="140" height="26" as="geometry" />
        </mxCell>
        <mxCell id="qlR7j_K9BmZmSB4jI-02-6" value="+&amp;nbsp;edukimi: String" style="text;strokeColor=none;fillColor=none;align=left;verticalAlign=top;spacingLeft=4;spacingRight=4;overflow=hidden;rotatable=0;points=[[0,0.5],[1,0.5]];portConstraint=eastwest;whiteSpace=wrap;html=1;" parent="qlR7j_K9BmZmSB4jI-02-0" vertex="1">
          <mxGeometry y="156" width="140" height="30" as="geometry" />
        </mxCell>
        <mxCell id="qlR7j_K9BmZmSB4jI-02-7" value="+ shkathetesit: String" style="text;strokeColor=none;fillColor=none;align=left;verticalAlign=top;spacingLeft=4;spacingRight=4;overflow=hidden;rotatable=0;points=[[0,0.5],[1,0.5]];portConstraint=eastwest;whiteSpace=wrap;html=1;" parent="qlR7j_K9BmZmSB4jI-02-0" vertex="1">
          <mxGeometry y="186" width="140" height="26" as="geometry" />
        </mxCell>
        <mxCell id="qlR7j_K9BmZmSB4jI-02-8" value="+ pozita: String" style="text;strokeColor=none;fillColor=none;align=left;verticalAlign=top;spacingLeft=4;spacingRight=4;overflow=hidden;rotatable=0;points=[[0,0.5],[1,0.5]];portConstraint=eastwest;whiteSpace=wrap;html=1;" parent="qlR7j_K9BmZmSB4jI-02-0" vertex="1">
          <mxGeometry y="212" width="140" height="26" as="geometry" />
        </mxCell>
        <mxCell id="qlR7j_K9BmZmSB4jI-02-9" value="PozitaPunes" style="swimlane;fontStyle=0;childLayout=stackLayout;horizontal=1;startSize=26;fillColor=none;horizontalStack=0;resizeParent=1;resizeParentMax=0;resizeLast=0;collapsible=1;marginBottom=0;whiteSpace=wrap;html=1;" parent="WIyWlLk6GJQsqaUBKTNV-1" vertex="1">
          <mxGeometry x="253" y="-740" width="140" height="128" as="geometry" />
        </mxCell>
        <mxCell id="qlR7j_K9BmZmSB4jI-02-10" value="+&amp;nbsp;emriPozites: String" style="text;strokeColor=none;fillColor=none;align=left;verticalAlign=top;spacingLeft=4;spacingRight=4;overflow=hidden;rotatable=0;points=[[0,0.5],[1,0.5]];portConstraint=eastwest;whiteSpace=wrap;html=1;" parent="qlR7j_K9BmZmSB4jI-02-9" vertex="1">
          <mxGeometry y="26" width="140" height="24" as="geometry" />
        </mxCell>
        <mxCell id="qlR7j_K9BmZmSB4jI-02-11" value="+&amp;nbsp;pershkrimi: String" style="text;strokeColor=none;fillColor=none;align=left;verticalAlign=top;spacingLeft=4;spacingRight=4;overflow=hidden;rotatable=0;points=[[0,0.5],[1,0.5]];portConstraint=eastwest;whiteSpace=wrap;html=1;" parent="qlR7j_K9BmZmSB4jI-02-9" vertex="1">
          <mxGeometry y="50" width="140" height="26" as="geometry" />
        </mxCell>
        <mxCell id="qlR7j_K9BmZmSB4jI-02-12" value="+&amp;nbsp;kerkesat: String" style="text;strokeColor=none;fillColor=none;align=left;verticalAlign=top;spacingLeft=4;spacingRight=4;overflow=hidden;rotatable=0;points=[[0,0.5],[1,0.5]];portConstraint=eastwest;whiteSpace=wrap;html=1;" parent="qlR7j_K9BmZmSB4jI-02-9" vertex="1">
          <mxGeometry y="76" width="140" height="26" as="geometry" />
        </mxCell>
        <mxCell id="qlR7j_K9BmZmSB4jI-02-13" value="+ pozitaPunes: String" style="text;strokeColor=none;fillColor=none;align=left;verticalAlign=top;spacingLeft=4;spacingRight=4;overflow=hidden;rotatable=0;points=[[0,0.5],[1,0.5]];portConstraint=eastwest;whiteSpace=wrap;html=1;" parent="qlR7j_K9BmZmSB4jI-02-9" vertex="1">
          <mxGeometry y="102" width="140" height="26" as="geometry" />
        </mxCell>
        <mxCell id="qlR7j_K9BmZmSB4jI-02-18" value="CV" style="swimlane;fontStyle=0;childLayout=stackLayout;horizontal=1;startSize=26;fillColor=none;horizontalStack=0;resizeParent=1;resizeParentMax=0;resizeLast=0;collapsible=1;marginBottom=0;whiteSpace=wrap;html=1;" parent="WIyWlLk6GJQsqaUBKTNV-1" vertex="1">
          <mxGeometry x="190" y="-1360" width="140" height="212" as="geometry" />
        </mxCell>
        <mxCell id="qlR7j_K9BmZmSB4jI-02-19" value="+&amp;nbsp;emri: String" style="text;strokeColor=none;fillColor=none;align=left;verticalAlign=top;spacingLeft=4;spacingRight=4;overflow=hidden;rotatable=0;points=[[0,0.5],[1,0.5]];portConstraint=eastwest;whiteSpace=wrap;html=1;" parent="qlR7j_K9BmZmSB4jI-02-18" vertex="1">
          <mxGeometry y="26" width="140" height="26" as="geometry" />
        </mxCell>
        <mxCell id="qlR7j_K9BmZmSB4jI-02-20" value="+&amp;nbsp;mbiemri: String" style="text;strokeColor=none;fillColor=none;align=left;verticalAlign=top;spacingLeft=4;spacingRight=4;overflow=hidden;rotatable=0;points=[[0,0.5],[1,0.5]];portConstraint=eastwest;whiteSpace=wrap;html=1;" parent="qlR7j_K9BmZmSB4jI-02-18" vertex="1">
          <mxGeometry y="52" width="140" height="26" as="geometry" />
        </mxCell>
        <mxCell id="qlR7j_K9BmZmSB4jI-02-21" value="+&amp;nbsp;adresa: String" style="text;strokeColor=none;fillColor=none;align=left;verticalAlign=top;spacingLeft=4;spacingRight=4;overflow=hidden;rotatable=0;points=[[0,0.5],[1,0.5]];portConstraint=eastwest;whiteSpace=wrap;html=1;" parent="qlR7j_K9BmZmSB4jI-02-18" vertex="1">
          <mxGeometry y="78" width="140" height="26" as="geometry" />
        </mxCell>
        <mxCell id="qlR7j_K9BmZmSB4jI-02-22" value="+&amp;nbsp;kontaktet: String" style="text;strokeColor=none;fillColor=none;align=left;verticalAlign=top;spacingLeft=4;spacingRight=4;overflow=hidden;rotatable=0;points=[[0,0.5],[1,0.5]];portConstraint=eastwest;whiteSpace=wrap;html=1;" parent="qlR7j_K9BmZmSB4jI-02-18" vertex="1">
          <mxGeometry y="104" width="140" height="26" as="geometry" />
        </mxCell>
        <mxCell id="qlR7j_K9BmZmSB4jI-02-23" value="+&amp;nbsp;edukimi: String" style="text;strokeColor=none;fillColor=none;align=left;verticalAlign=top;spacingLeft=4;spacingRight=4;overflow=hidden;rotatable=0;points=[[0,0.5],[1,0.5]];portConstraint=eastwest;whiteSpace=wrap;html=1;" parent="qlR7j_K9BmZmSB4jI-02-18" vertex="1">
          <mxGeometry y="130" width="140" height="30" as="geometry" />
        </mxCell>
        <mxCell id="qlR7j_K9BmZmSB4jI-02-24" value="+&amp;nbsp;eksperienca: String" style="text;strokeColor=none;fillColor=none;align=left;verticalAlign=top;spacingLeft=4;spacingRight=4;overflow=hidden;rotatable=0;points=[[0,0.5],[1,0.5]];portConstraint=eastwest;whiteSpace=wrap;html=1;" parent="qlR7j_K9BmZmSB4jI-02-18" vertex="1">
          <mxGeometry y="160" width="140" height="26" as="geometry" />
        </mxCell>
        <mxCell id="qlR7j_K9BmZmSB4jI-02-25" value="+&amp;nbsp; shkathetesit: String" style="text;strokeColor=none;fillColor=none;align=left;verticalAlign=top;spacingLeft=4;spacingRight=4;overflow=hidden;rotatable=0;points=[[0,0.5],[1,0.5]];portConstraint=eastwest;whiteSpace=wrap;html=1;" parent="qlR7j_K9BmZmSB4jI-02-18" vertex="1">
          <mxGeometry y="186" width="140" height="26" as="geometry" />
        </mxCell>
        <mxCell id="qlR7j_K9BmZmSB4jI-02-26" value="StatusiAplikimit" style="swimlane;fontStyle=0;childLayout=stackLayout;horizontal=1;startSize=26;fillColor=none;horizontalStack=0;resizeParent=1;resizeParentMax=0;resizeLast=0;collapsible=1;marginBottom=0;whiteSpace=wrap;html=1;" parent="WIyWlLk6GJQsqaUBKTNV-1" vertex="1">
          <mxGeometry x="-250" y="-829" width="178" height="104" as="geometry" />
        </mxCell>
        <mxCell id="qlR7j_K9BmZmSB4jI-02-27" value="+&amp;nbsp;statusiAktual: String" style="text;strokeColor=none;fillColor=none;align=left;verticalAlign=top;spacingLeft=4;spacingRight=4;overflow=hidden;rotatable=0;points=[[0,0.5],[1,0.5]];portConstraint=eastwest;whiteSpace=wrap;html=1;" parent="qlR7j_K9BmZmSB4jI-02-26" vertex="1">
          <mxGeometry y="26" width="178" height="26" as="geometry" />
        </mxCell>
        <mxCell id="qlR7j_K9BmZmSB4jI-02-28" value="+&amp;nbsp;emriKompanise: String" style="text;strokeColor=none;fillColor=none;align=left;verticalAlign=top;spacingLeft=4;spacingRight=4;overflow=hidden;rotatable=0;points=[[0,0.5],[1,0.5]];portConstraint=eastwest;whiteSpace=wrap;html=1;" parent="qlR7j_K9BmZmSB4jI-02-26" vertex="1">
          <mxGeometry y="52" width="178" height="26" as="geometry" />
        </mxCell>
        <mxCell id="qlR7j_K9BmZmSB4jI-02-29" value="+ pozitaPunes: String" style="text;strokeColor=none;fillColor=none;align=left;verticalAlign=top;spacingLeft=4;spacingRight=4;overflow=hidden;rotatable=0;points=[[0,0.5],[1,0.5]];portConstraint=eastwest;whiteSpace=wrap;html=1;" parent="qlR7j_K9BmZmSB4jI-02-26" vertex="1">
          <mxGeometry y="78" width="178" height="26" as="geometry" />
        </mxCell>
        <mxCell id="Q0Zz0vdiJcVVRRVcLZJk-65" style="edgeStyle=orthogonalEdgeStyle;rounded=0;orthogonalLoop=1;jettySize=auto;html=1;exitX=0;exitY=0;exitDx=0;exitDy=0;entryX=1;entryY=0;entryDx=0;entryDy=0;endArrow=none;endFill=0;" parent="WIyWlLk6GJQsqaUBKTNV-1" source="qlR7j_K9BmZmSB4jI-02-30" target="qlR7j_K9BmZmSB4jI-02-0" edge="1">
          <mxGeometry relative="1" as="geometry">
            <Array as="points">
              <mxPoint x="159" y="-1070" />
            </Array>
          </mxGeometry>
        </mxCell>
        <mxCell id="qlR7j_K9BmZmSB4jI-02-30" value="KontaktetNdihmesIT" style="swimlane;fontStyle=0;childLayout=stackLayout;horizontal=1;startSize=26;fillColor=none;horizontalStack=0;resizeParent=1;resizeParentMax=0;resizeLast=0;collapsible=1;marginBottom=0;whiteSpace=wrap;html=1;" parent="WIyWlLk6GJQsqaUBKTNV-1" vertex="1">
          <mxGeometry x="841" y="-1070" width="140" height="78" as="geometry" />
        </mxCell>
        <mxCell id="qlR7j_K9BmZmSB4jI-02-31" value="+&amp;nbsp;ndihmaTeknike: String" style="text;strokeColor=none;fillColor=none;align=left;verticalAlign=top;spacingLeft=4;spacingRight=4;overflow=hidden;rotatable=0;points=[[0,0.5],[1,0.5]];portConstraint=eastwest;whiteSpace=wrap;html=1;" parent="qlR7j_K9BmZmSB4jI-02-30" vertex="1">
          <mxGeometry y="26" width="140" height="26" as="geometry" />
        </mxCell>
        <mxCell id="qlR7j_K9BmZmSB4jI-02-32" value="+&amp;nbsp;kontakti: String" style="text;strokeColor=none;fillColor=none;align=left;verticalAlign=top;spacingLeft=4;spacingRight=4;overflow=hidden;rotatable=0;points=[[0,0.5],[1,0.5]];portConstraint=eastwest;whiteSpace=wrap;html=1;" parent="qlR7j_K9BmZmSB4jI-02-30" vertex="1">
          <mxGeometry y="52" width="140" height="26" as="geometry" />
        </mxCell>
        <mxCell id="qlR7j_K9BmZmSB4jI-02-33" value="LetraMotivuese" style="swimlane;fontStyle=0;childLayout=stackLayout;horizontal=1;startSize=26;fillColor=none;horizontalStack=0;resizeParent=1;resizeParentMax=0;resizeLast=0;collapsible=1;marginBottom=0;whiteSpace=wrap;html=1;" parent="WIyWlLk6GJQsqaUBKTNV-1" vertex="1">
          <mxGeometry x="-250" y="-1054" width="140" height="130" as="geometry" />
        </mxCell>
        <mxCell id="qlR7j_K9BmZmSB4jI-02-34" value="+&amp;nbsp;emri: String" style="text;strokeColor=none;fillColor=none;align=left;verticalAlign=top;spacingLeft=4;spacingRight=4;overflow=hidden;rotatable=0;points=[[0,0.5],[1,0.5]];portConstraint=eastwest;whiteSpace=wrap;html=1;" parent="qlR7j_K9BmZmSB4jI-02-33" vertex="1">
          <mxGeometry y="26" width="140" height="26" as="geometry" />
        </mxCell>
        <mxCell id="qlR7j_K9BmZmSB4jI-02-35" value="+&amp;nbsp;mbiemri: String" style="text;strokeColor=none;fillColor=none;align=left;verticalAlign=top;spacingLeft=4;spacingRight=4;overflow=hidden;rotatable=0;points=[[0,0.5],[1,0.5]];portConstraint=eastwest;whiteSpace=wrap;html=1;" parent="qlR7j_K9BmZmSB4jI-02-33" vertex="1">
          <mxGeometry y="52" width="140" height="26" as="geometry" />
        </mxCell>
        <mxCell id="qlR7j_K9BmZmSB4jI-02-36" value="+ informacion: String" style="text;strokeColor=none;fillColor=none;align=left;verticalAlign=top;spacingLeft=4;spacingRight=4;overflow=hidden;rotatable=0;points=[[0,0.5],[1,0.5]];portConstraint=eastwest;whiteSpace=wrap;html=1;" parent="qlR7j_K9BmZmSB4jI-02-33" vertex="1">
          <mxGeometry y="78" width="140" height="26" as="geometry" />
        </mxCell>
        <mxCell id="qlR7j_K9BmZmSB4jI-02-37" value="+&amp;nbsp; shkathetesit: String" style="text;strokeColor=none;fillColor=none;align=left;verticalAlign=top;spacingLeft=4;spacingRight=4;overflow=hidden;rotatable=0;points=[[0,0.5],[1,0.5]];portConstraint=eastwest;whiteSpace=wrap;html=1;" parent="qlR7j_K9BmZmSB4jI-02-33" vertex="1">
          <mxGeometry y="104" width="140" height="26" as="geometry" />
        </mxCell>
        <mxCell id="qlR7j_K9BmZmSB4jI-02-41" value="Intervista" style="swimlane;fontStyle=0;childLayout=stackLayout;horizontal=1;startSize=26;fillColor=none;horizontalStack=0;resizeParent=1;resizeParentMax=0;resizeLast=0;collapsible=1;marginBottom=0;whiteSpace=wrap;html=1;" parent="WIyWlLk6GJQsqaUBKTNV-1" vertex="1">
          <mxGeometry x="19" y="-730" width="140" height="104" as="geometry" />
        </mxCell>
        <mxCell id="qlR7j_K9BmZmSB4jI-02-42" value="+&amp;nbsp;data: Date" style="text;strokeColor=none;fillColor=none;align=left;verticalAlign=top;spacingLeft=4;spacingRight=4;overflow=hidden;rotatable=0;points=[[0,0.5],[1,0.5]];portConstraint=eastwest;whiteSpace=wrap;html=1;" parent="qlR7j_K9BmZmSB4jI-02-41" vertex="1">
          <mxGeometry y="26" width="140" height="26" as="geometry" />
        </mxCell>
        <mxCell id="qlR7j_K9BmZmSB4jI-02-43" value="+&amp;nbsp;koha: Time&lt;br/&gt;" style="text;strokeColor=none;fillColor=none;align=left;verticalAlign=top;spacingLeft=4;spacingRight=4;overflow=hidden;rotatable=0;points=[[0,0.5],[1,0.5]];portConstraint=eastwest;whiteSpace=wrap;html=1;" parent="qlR7j_K9BmZmSB4jI-02-41" vertex="1">
          <mxGeometry y="52" width="140" height="26" as="geometry" />
        </mxCell>
        <mxCell id="qlR7j_K9BmZmSB4jI-02-44" value="+&amp;nbsp;pjesemarresit: String" style="text;strokeColor=none;fillColor=none;align=left;verticalAlign=top;spacingLeft=4;spacingRight=4;overflow=hidden;rotatable=0;points=[[0,0.5],[1,0.5]];portConstraint=eastwest;whiteSpace=wrap;html=1;" parent="qlR7j_K9BmZmSB4jI-02-41" vertex="1">
          <mxGeometry y="78" width="140" height="26" as="geometry" />
        </mxCell>
        <mxCell id="qlR7j_K9BmZmSB4jI-02-45" value="" style="endArrow=none;html=1;rounded=0;exitX=0.5;exitY=0;exitDx=0;exitDy=0;entryX=0.468;entryY=1.088;entryDx=0;entryDy=0;entryPerimeter=0;endFill=0;endSize=12;startArrow=diamondThin;startFill=0;startSize=14;edgeStyle=orthogonalEdgeStyle;" parent="WIyWlLk6GJQsqaUBKTNV-1" source="qlR7j_K9BmZmSB4jI-02-0" target="qlR7j_K9BmZmSB4jI-02-25" edge="1">
          <mxGeometry width="50" height="50" relative="1" as="geometry">
            <mxPoint x="-61" y="-1070" as="sourcePoint" />
            <mxPoint x="-11" y="-1120" as="targetPoint" />
            <Array as="points">
              <mxPoint x="89" y="-1120" />
              <mxPoint x="256" y="-1120" />
            </Array>
          </mxGeometry>
        </mxCell>
        <mxCell id="qlR7j_K9BmZmSB4jI-02-48" value="" style="endArrow=none;html=1;rounded=0;entryX=1;entryY=0.5;entryDx=0;entryDy=0;exitX=0;exitY=0.5;exitDx=0;exitDy=0;startArrow=diamondThin;startFill=1;endFill=0;endSize=12;startSize=14;" parent="WIyWlLk6GJQsqaUBKTNV-1" source="qlR7j_K9BmZmSB4jI-02-3" edge="1">
          <mxGeometry width="50" height="50" relative="1" as="geometry">
            <mxPoint x="319" y="-1060" as="sourcePoint" />
            <mxPoint x="-110" y="-989" as="targetPoint" />
          </mxGeometry>
        </mxCell>
        <mxCell id="qlR7j_K9BmZmSB4jI-02-53" value="" style="endArrow=none;html=1;rounded=0;exitX=0.494;exitY=0.992;exitDx=0;exitDy=0;exitPerimeter=0;entryX=0.5;entryY=0;entryDx=0;entryDy=0;startArrow=diamondThin;startFill=1;endFill=0;startSize=14;" parent="WIyWlLk6GJQsqaUBKTNV-1" source="qlR7j_K9BmZmSB4jI-02-8" target="qlR7j_K9BmZmSB4jI-02-41" edge="1">
          <mxGeometry width="50" height="50" relative="1" as="geometry">
            <mxPoint x="240" y="-830" as="sourcePoint" />
            <mxPoint x="290" y="-880" as="targetPoint" />
          </mxGeometry>
        </mxCell>
        <mxCell id="qlR7j_K9BmZmSB4jI-02-54" value="1" style="endArrow=diamondThin;html=1;endSize=12;startArrow=none;startSize=14;startFill=0;align=left;verticalAlign=bottom;rounded=0;entryX=0;entryY=0.5;entryDx=0;entryDy=0;endFill=0;edgeStyle=orthogonalEdgeStyle;exitX=1.002;exitY=0.057;exitDx=0;exitDy=0;exitPerimeter=0;" parent="WIyWlLk6GJQsqaUBKTNV-1" source="qlR7j_K9BmZmSB4jI-02-43" target="qlR7j_K9BmZmSB4jI-02-11" edge="1">
          <mxGeometry x="-1" y="3" relative="1" as="geometry">
            <mxPoint x="160" y="-680" as="sourcePoint" />
            <mxPoint x="599" y="-790" as="targetPoint" />
          </mxGeometry>
        </mxCell>
        <mxCell id="qlR7j_K9BmZmSB4jI-02-55" value="1" style="endArrow=none;html=1;endSize=12;startArrow=diamondThin;startSize=14;startFill=1;align=left;verticalAlign=bottom;rounded=0;entryX=0.5;entryY=0;entryDx=0;entryDy=0;exitX=0;exitY=0.5;exitDx=0;exitDy=0;endFill=0;targetPerimeterSpacing=12;edgeStyle=orthogonalEdgeStyle;" parent="WIyWlLk6GJQsqaUBKTNV-1" source="qlR7j_K9BmZmSB4jI-02-7" target="qlR7j_K9BmZmSB4jI-02-26" edge="1">
          <mxGeometry x="-1" y="3" relative="1" as="geometry">
            <mxPoint x="170" y="-940" as="sourcePoint" />
            <mxPoint x="339" y="-940" as="targetPoint" />
          </mxGeometry>
        </mxCell>
        <mxCell id="qlR7j_K9BmZmSB4jI-02-64" value="" style="rounded=0;whiteSpace=wrap;html=1;fillColor=none;" parent="WIyWlLk6GJQsqaUBKTNV-1" vertex="1">
          <mxGeometry x="-320" y="-1473" width="1360" height="1021" as="geometry" />
        </mxCell>
        <mxCell id="qlR7j_K9BmZmSB4jI-02-65" value="&lt;b&gt;&lt;font style=&quot;font-size: 20px;&quot;&gt;Job Application System&lt;/font&gt;&lt;/b&gt;" style="text;html=1;strokeColor=none;fillColor=none;align=center;verticalAlign=middle;whiteSpace=wrap;rounded=0;" parent="WIyWlLk6GJQsqaUBKTNV-1" vertex="1">
          <mxGeometry x="219" y="-1450" width="262" height="30" as="geometry" />
        </mxCell>
        <mxCell id="qlR7j_K9BmZmSB4jI-02-115" value="Rekrutuesi" style="swimlane;fontStyle=0;childLayout=stackLayout;horizontal=1;startSize=26;fillColor=none;horizontalStack=0;resizeParent=1;resizeParentMax=0;resizeLast=0;collapsible=1;marginBottom=0;whiteSpace=wrap;html=1;" parent="WIyWlLk6GJQsqaUBKTNV-1" vertex="1">
          <mxGeometry x="570" y="-1043" width="170" height="186" as="geometry" />
        </mxCell>
        <mxCell id="qlR7j_K9BmZmSB4jI-02-116" value="+&amp;nbsp;emri: String" style="text;strokeColor=none;fillColor=none;align=left;verticalAlign=top;spacingLeft=4;spacingRight=4;overflow=hidden;rotatable=0;points=[[0,0.5],[1,0.5]];portConstraint=eastwest;whiteSpace=wrap;html=1;" parent="qlR7j_K9BmZmSB4jI-02-115" vertex="1">
          <mxGeometry y="26" width="170" height="26" as="geometry" />
        </mxCell>
        <mxCell id="qlR7j_K9BmZmSB4jI-02-117" value="+&amp;nbsp;mbiemri: String" style="text;strokeColor=none;fillColor=none;align=left;verticalAlign=top;spacingLeft=4;spacingRight=4;overflow=hidden;rotatable=0;points=[[0,0.5],[1,0.5]];portConstraint=eastwest;whiteSpace=wrap;html=1;" parent="qlR7j_K9BmZmSB4jI-02-115" vertex="1">
          <mxGeometry y="52" width="170" height="26" as="geometry" />
        </mxCell>
        <mxCell id="qlR7j_K9BmZmSB4jI-02-119" value="+&amp;nbsp;kontaktet: String" style="text;strokeColor=none;fillColor=none;align=left;verticalAlign=top;spacingLeft=4;spacingRight=4;overflow=hidden;rotatable=0;points=[[0,0.5],[1,0.5]];portConstraint=eastwest;whiteSpace=wrap;html=1;" parent="qlR7j_K9BmZmSB4jI-02-115" vertex="1">
          <mxGeometry y="78" width="170" height="26" as="geometry" />
        </mxCell>
        <mxCell id="qlR7j_K9BmZmSB4jI-02-118" value="+ kompania: String" style="text;strokeColor=none;fillColor=none;align=left;verticalAlign=top;spacingLeft=4;spacingRight=4;overflow=hidden;rotatable=0;points=[[0,0.5],[1,0.5]];portConstraint=eastwest;whiteSpace=wrap;html=1;" parent="qlR7j_K9BmZmSB4jI-02-115" vertex="1">
          <mxGeometry y="104" width="170" height="26" as="geometry" />
        </mxCell>
        <mxCell id="qlR7j_K9BmZmSB4jI-02-120" value="+ numriRekrutimeve: String" style="text;strokeColor=none;fillColor=none;align=left;verticalAlign=top;spacingLeft=4;spacingRight=4;overflow=hidden;rotatable=0;points=[[0,0.5],[1,0.5]];portConstraint=eastwest;whiteSpace=wrap;html=1;" parent="qlR7j_K9BmZmSB4jI-02-115" vertex="1">
          <mxGeometry y="130" width="170" height="30" as="geometry" />
        </mxCell>
        <mxCell id="qlR7j_K9BmZmSB4jI-02-121" value="+ information: String" style="text;strokeColor=none;fillColor=none;align=left;verticalAlign=top;spacingLeft=4;spacingRight=4;overflow=hidden;rotatable=0;points=[[0,0.5],[1,0.5]];portConstraint=eastwest;whiteSpace=wrap;html=1;" parent="qlR7j_K9BmZmSB4jI-02-115" vertex="1">
          <mxGeometry y="160" width="170" height="26" as="geometry" />
        </mxCell>
        <mxCell id="Q0Zz0vdiJcVVRRVcLZJk-1" value="Punet" style="swimlane;fontStyle=0;align=center;verticalAlign=top;childLayout=stackLayout;horizontal=1;startSize=26;horizontalStack=0;resizeParent=1;resizeLast=0;collapsible=1;marginBottom=0;rounded=0;shadow=0;strokeWidth=1;" parent="WIyWlLk6GJQsqaUBKTNV-1" vertex="1">
          <mxGeometry x="620" y="-584" width="160" height="104" as="geometry">
            <mxRectangle x="720" y="-1324" width="160" height="26" as="alternateBounds" />
          </mxGeometry>
        </mxCell>
        <mxCell id="Q0Zz0vdiJcVVRRVcLZJk-2" value="+ emri: String" style="text;align=left;verticalAlign=top;spacingLeft=4;spacingRight=4;overflow=hidden;rotatable=0;points=[[0,0.5],[1,0.5]];portConstraint=eastwest;" parent="Q0Zz0vdiJcVVRRVcLZJk-1" vertex="1">
          <mxGeometry y="26" width="160" height="26" as="geometry" />
        </mxCell>
        <mxCell id="Q0Zz0vdiJcVVRRVcLZJk-4" value="+ numriPunetoreve: String" style="text;align=left;verticalAlign=top;spacingLeft=4;spacingRight=4;overflow=hidden;rotatable=0;points=[[0,0.5],[1,0.5]];portConstraint=eastwest;fontStyle=4" parent="Q0Zz0vdiJcVVRRVcLZJk-1" vertex="1">
          <mxGeometry y="52" width="160" height="26" as="geometry" />
        </mxCell>
        <mxCell id="Q0Zz0vdiJcVVRRVcLZJk-3" value="+ shumaTotale: int" style="text;align=left;verticalAlign=top;spacingLeft=4;spacingRight=4;overflow=hidden;rotatable=0;points=[[0,0.5],[1,0.5]];portConstraint=eastwest;rounded=0;shadow=0;html=0;" parent="Q0Zz0vdiJcVVRRVcLZJk-1" vertex="1">
          <mxGeometry y="78" width="160" height="26" as="geometry" />
        </mxCell>
        <mxCell id="Q0Zz0vdiJcVVRRVcLZJk-8" value="Aftesia" style="swimlane;fontStyle=0;childLayout=stackLayout;horizontal=1;startSize=26;fillColor=none;horizontalStack=0;resizeParent=1;resizeParentMax=0;resizeLast=0;collapsible=1;marginBottom=0;whiteSpace=wrap;html=1;" parent="WIyWlLk6GJQsqaUBKTNV-1" vertex="1">
          <mxGeometry x="-60" y="-1360" width="170" height="186" as="geometry" />
        </mxCell>
        <mxCell id="Q0Zz0vdiJcVVRRVcLZJk-10" value="+&amp;nbsp;emri: String" style="text;strokeColor=none;fillColor=none;align=left;verticalAlign=top;spacingLeft=4;spacingRight=4;overflow=hidden;rotatable=0;points=[[0,0.5],[1,0.5]];portConstraint=eastwest;whiteSpace=wrap;html=1;" parent="Q0Zz0vdiJcVVRRVcLZJk-8" vertex="1">
          <mxGeometry y="26" width="170" height="26" as="geometry" />
        </mxCell>
        <mxCell id="Q0Zz0vdiJcVVRRVcLZJk-11" value="+ tipi: String" style="text;strokeColor=none;fillColor=none;align=left;verticalAlign=top;spacingLeft=4;spacingRight=4;overflow=hidden;rotatable=0;points=[[0,0.5],[1,0.5]];portConstraint=eastwest;whiteSpace=wrap;html=1;" parent="Q0Zz0vdiJcVVRRVcLZJk-8" vertex="1">
          <mxGeometry y="52" width="170" height="26" as="geometry" />
        </mxCell>
        <mxCell id="Q0Zz0vdiJcVVRRVcLZJk-12" value="+ niveli: String" style="text;strokeColor=none;fillColor=none;align=left;verticalAlign=top;spacingLeft=4;spacingRight=4;overflow=hidden;rotatable=0;points=[[0,0.5],[1,0.5]];portConstraint=eastwest;whiteSpace=wrap;html=1;" parent="Q0Zz0vdiJcVVRRVcLZJk-8" vertex="1">
          <mxGeometry y="78" width="170" height="26" as="geometry" />
        </mxCell>
        <mxCell id="Q0Zz0vdiJcVVRRVcLZJk-13" value="+ verifikimet: String" style="text;strokeColor=none;fillColor=none;align=left;verticalAlign=top;spacingLeft=4;spacingRight=4;overflow=hidden;rotatable=0;points=[[0,0.5],[1,0.5]];portConstraint=eastwest;whiteSpace=wrap;html=1;" parent="Q0Zz0vdiJcVVRRVcLZJk-8" vertex="1">
          <mxGeometry y="104" width="170" height="26" as="geometry" />
        </mxCell>
        <mxCell id="Q0Zz0vdiJcVVRRVcLZJk-14" value="+ dataArritjes: String" style="text;strokeColor=none;fillColor=none;align=left;verticalAlign=top;spacingLeft=4;spacingRight=4;overflow=hidden;rotatable=0;points=[[0,0.5],[1,0.5]];portConstraint=eastwest;whiteSpace=wrap;html=1;" parent="Q0Zz0vdiJcVVRRVcLZJk-8" vertex="1">
          <mxGeometry y="130" width="170" height="30" as="geometry" />
        </mxCell>
        <mxCell id="Q0Zz0vdiJcVVRRVcLZJk-15" value="+ komenti: String" style="text;strokeColor=none;fillColor=none;align=left;verticalAlign=top;spacingLeft=4;spacingRight=4;overflow=hidden;rotatable=0;points=[[0,0.5],[1,0.5]];portConstraint=eastwest;whiteSpace=wrap;html=1;" parent="Q0Zz0vdiJcVVRRVcLZJk-8" vertex="1">
          <mxGeometry y="160" width="170" height="26" as="geometry" />
        </mxCell>
        <mxCell id="Q0Zz0vdiJcVVRRVcLZJk-16" value="HistoriaAplikantit" style="swimlane;fontStyle=0;childLayout=stackLayout;horizontal=1;startSize=26;fillColor=none;horizontalStack=0;resizeParent=1;resizeParentMax=0;resizeLast=0;collapsible=1;marginBottom=0;whiteSpace=wrap;html=1;" parent="WIyWlLk6GJQsqaUBKTNV-1" vertex="1">
          <mxGeometry x="393" y="-1278" width="170" height="130" as="geometry" />
        </mxCell>
        <mxCell id="Q0Zz0vdiJcVVRRVcLZJk-18" value="+&amp;nbsp;emri: String" style="text;strokeColor=none;fillColor=none;align=left;verticalAlign=top;spacingLeft=4;spacingRight=4;overflow=hidden;rotatable=0;points=[[0,0.5],[1,0.5]];portConstraint=eastwest;whiteSpace=wrap;html=1;" parent="Q0Zz0vdiJcVVRRVcLZJk-16" vertex="1">
          <mxGeometry y="26" width="170" height="26" as="geometry" />
        </mxCell>
        <mxCell id="Q0Zz0vdiJcVVRRVcLZJk-19" value="+ data: String" style="text;strokeColor=none;fillColor=none;align=left;verticalAlign=top;spacingLeft=4;spacingRight=4;overflow=hidden;rotatable=0;points=[[0,0.5],[1,0.5]];portConstraint=eastwest;whiteSpace=wrap;html=1;" parent="Q0Zz0vdiJcVVRRVcLZJk-16" vertex="1">
          <mxGeometry y="52" width="170" height="26" as="geometry" />
        </mxCell>
        <mxCell id="Q0Zz0vdiJcVVRRVcLZJk-17" value="+&amp;nbsp; pelqimet:&amp;nbsp; String" style="text;strokeColor=none;fillColor=none;align=left;verticalAlign=top;spacingLeft=4;spacingRight=4;overflow=hidden;rotatable=0;points=[[0,0.5],[1,0.5]];portConstraint=eastwest;whiteSpace=wrap;html=1;" parent="Q0Zz0vdiJcVVRRVcLZJk-16" vertex="1">
          <mxGeometry y="78" width="170" height="26" as="geometry" />
        </mxCell>
        <mxCell id="Q0Zz0vdiJcVVRRVcLZJk-23" value="+ komentet: String" style="text;strokeColor=none;fillColor=none;align=left;verticalAlign=top;spacingLeft=4;spacingRight=4;overflow=hidden;rotatable=0;points=[[0,0.5],[1,0.5]];portConstraint=eastwest;whiteSpace=wrap;html=1;" parent="Q0Zz0vdiJcVVRRVcLZJk-16" vertex="1">
          <mxGeometry y="104" width="170" height="26" as="geometry" />
        </mxCell>
        <mxCell id="Q0Zz0vdiJcVVRRVcLZJk-24" value="Edukimi" style="swimlane;fontStyle=0;childLayout=stackLayout;horizontal=1;startSize=26;fillColor=none;horizontalStack=0;resizeParent=1;resizeParentMax=0;resizeLast=0;collapsible=1;marginBottom=0;whiteSpace=wrap;html=1;" parent="WIyWlLk6GJQsqaUBKTNV-1" vertex="1">
          <mxGeometry x="-280" y="-1360" width="160" height="212" as="geometry" />
        </mxCell>
        <mxCell id="Q0Zz0vdiJcVVRRVcLZJk-26" value="+&amp;nbsp;emri: String" style="text;strokeColor=none;fillColor=none;align=left;verticalAlign=top;spacingLeft=4;spacingRight=4;overflow=hidden;rotatable=0;points=[[0,0.5],[1,0.5]];portConstraint=eastwest;whiteSpace=wrap;html=1;" parent="Q0Zz0vdiJcVVRRVcLZJk-24" vertex="1">
          <mxGeometry y="26" width="160" height="26" as="geometry" />
        </mxCell>
        <mxCell id="Q0Zz0vdiJcVVRRVcLZJk-27" value="+ tipi: String" style="text;strokeColor=none;fillColor=none;align=left;verticalAlign=top;spacingLeft=4;spacingRight=4;overflow=hidden;rotatable=0;points=[[0,0.5],[1,0.5]];portConstraint=eastwest;whiteSpace=wrap;html=1;" parent="Q0Zz0vdiJcVVRRVcLZJk-24" vertex="1">
          <mxGeometry y="52" width="160" height="26" as="geometry" />
        </mxCell>
        <mxCell id="Q0Zz0vdiJcVVRRVcLZJk-28" value="+ niveli: String" style="text;strokeColor=none;fillColor=none;align=left;verticalAlign=top;spacingLeft=4;spacingRight=4;overflow=hidden;rotatable=0;points=[[0,0.5],[1,0.5]];portConstraint=eastwest;whiteSpace=wrap;html=1;" parent="Q0Zz0vdiJcVVRRVcLZJk-24" vertex="1">
          <mxGeometry y="78" width="160" height="26" as="geometry" />
        </mxCell>
        <mxCell id="Q0Zz0vdiJcVVRRVcLZJk-29" value="+ verifikimet: String" style="text;strokeColor=none;fillColor=none;align=left;verticalAlign=top;spacingLeft=4;spacingRight=4;overflow=hidden;rotatable=0;points=[[0,0.5],[1,0.5]];portConstraint=eastwest;whiteSpace=wrap;html=1;" parent="Q0Zz0vdiJcVVRRVcLZJk-24" vertex="1">
          <mxGeometry y="104" width="160" height="26" as="geometry" />
        </mxCell>
        <mxCell id="Q0Zz0vdiJcVVRRVcLZJk-30" value="+ dataFillimit: String" style="text;strokeColor=none;fillColor=none;align=left;verticalAlign=top;spacingLeft=4;spacingRight=4;overflow=hidden;rotatable=0;points=[[0,0.5],[1,0.5]];portConstraint=eastwest;whiteSpace=wrap;html=1;" parent="Q0Zz0vdiJcVVRRVcLZJk-24" vertex="1">
          <mxGeometry y="130" width="160" height="30" as="geometry" />
        </mxCell>
        <mxCell id="Q0Zz0vdiJcVVRRVcLZJk-25" value="+ dataMbarimit: String" style="text;strokeColor=none;fillColor=none;align=left;verticalAlign=top;spacingLeft=4;spacingRight=4;overflow=hidden;rotatable=0;points=[[0,0.5],[1,0.5]];portConstraint=eastwest;whiteSpace=wrap;html=1;" parent="Q0Zz0vdiJcVVRRVcLZJk-24" vertex="1">
          <mxGeometry y="160" width="160" height="26" as="geometry" />
        </mxCell>
        <mxCell id="Q0Zz0vdiJcVVRRVcLZJk-31" value="+ komenti: String" style="text;strokeColor=none;fillColor=none;align=left;verticalAlign=top;spacingLeft=4;spacingRight=4;overflow=hidden;rotatable=0;points=[[0,0.5],[1,0.5]];portConstraint=eastwest;whiteSpace=wrap;html=1;" parent="Q0Zz0vdiJcVVRRVcLZJk-24" vertex="1">
          <mxGeometry y="186" width="160" height="26" as="geometry" />
        </mxCell>
        <mxCell id="Q0Zz0vdiJcVVRRVcLZJk-32" value="Kompania" style="swimlane;fontStyle=0;childLayout=stackLayout;horizontal=1;startSize=26;fillColor=none;horizontalStack=0;resizeParent=1;resizeParentMax=0;resizeLast=0;collapsible=1;marginBottom=0;whiteSpace=wrap;html=1;" parent="WIyWlLk6GJQsqaUBKTNV-1" vertex="1">
          <mxGeometry x="830" y="-842" width="160" height="212" as="geometry" />
        </mxCell>
        <mxCell id="Q0Zz0vdiJcVVRRVcLZJk-33" value="+&amp;nbsp;emri: String" style="text;strokeColor=none;fillColor=none;align=left;verticalAlign=top;spacingLeft=4;spacingRight=4;overflow=hidden;rotatable=0;points=[[0,0.5],[1,0.5]];portConstraint=eastwest;whiteSpace=wrap;html=1;" parent="Q0Zz0vdiJcVVRRVcLZJk-32" vertex="1">
          <mxGeometry y="26" width="160" height="26" as="geometry" />
        </mxCell>
        <mxCell id="Q0Zz0vdiJcVVRRVcLZJk-34" value="+ tipi: String" style="text;strokeColor=none;fillColor=none;align=left;verticalAlign=top;spacingLeft=4;spacingRight=4;overflow=hidden;rotatable=0;points=[[0,0.5],[1,0.5]];portConstraint=eastwest;whiteSpace=wrap;html=1;" parent="Q0Zz0vdiJcVVRRVcLZJk-32" vertex="1">
          <mxGeometry y="52" width="160" height="26" as="geometry" />
        </mxCell>
        <mxCell id="Q0Zz0vdiJcVVRRVcLZJk-35" value="+ staffi: String" style="text;strokeColor=none;fillColor=none;align=left;verticalAlign=top;spacingLeft=4;spacingRight=4;overflow=hidden;rotatable=0;points=[[0,0.5],[1,0.5]];portConstraint=eastwest;whiteSpace=wrap;html=1;" parent="Q0Zz0vdiJcVVRRVcLZJk-32" vertex="1">
          <mxGeometry y="78" width="160" height="26" as="geometry" />
        </mxCell>
        <mxCell id="Q0Zz0vdiJcVVRRVcLZJk-36" value="+ info: String" style="text;strokeColor=none;fillColor=none;align=left;verticalAlign=top;spacingLeft=4;spacingRight=4;overflow=hidden;rotatable=0;points=[[0,0.5],[1,0.5]];portConstraint=eastwest;whiteSpace=wrap;html=1;" parent="Q0Zz0vdiJcVVRRVcLZJk-32" vertex="1">
          <mxGeometry y="104" width="160" height="26" as="geometry" />
        </mxCell>
        <mxCell id="Q0Zz0vdiJcVVRRVcLZJk-38" value="+ puneTeHapura: String" style="text;strokeColor=none;fillColor=none;align=left;verticalAlign=top;spacingLeft=4;spacingRight=4;overflow=hidden;rotatable=0;points=[[0,0.5],[1,0.5]];portConstraint=eastwest;whiteSpace=wrap;html=1;" parent="Q0Zz0vdiJcVVRRVcLZJk-32" vertex="1">
          <mxGeometry y="130" width="160" height="26" as="geometry" />
        </mxCell>
        <mxCell id="Q0Zz0vdiJcVVRRVcLZJk-37" value="+ dataHapjes: String" style="text;strokeColor=none;fillColor=none;align=left;verticalAlign=top;spacingLeft=4;spacingRight=4;overflow=hidden;rotatable=0;points=[[0,0.5],[1,0.5]];portConstraint=eastwest;whiteSpace=wrap;html=1;" parent="Q0Zz0vdiJcVVRRVcLZJk-32" vertex="1">
          <mxGeometry y="156" width="160" height="30" as="geometry" />
        </mxCell>
        <mxCell id="Q0Zz0vdiJcVVRRVcLZJk-39" value="+ komentet: String" style="text;strokeColor=none;fillColor=none;align=left;verticalAlign=top;spacingLeft=4;spacingRight=4;overflow=hidden;rotatable=0;points=[[0,0.5],[1,0.5]];portConstraint=eastwest;whiteSpace=wrap;html=1;" parent="Q0Zz0vdiJcVVRRVcLZJk-32" vertex="1">
          <mxGeometry y="186" width="160" height="26" as="geometry" />
        </mxCell>
        <mxCell id="Q0Zz0vdiJcVVRRVcLZJk-40" value="Mesazhet&lt;br&gt;" style="swimlane;fontStyle=0;childLayout=stackLayout;horizontal=1;startSize=26;fillColor=none;horizontalStack=0;resizeParent=1;resizeParentMax=0;resizeLast=0;collapsible=1;marginBottom=0;whiteSpace=wrap;html=1;" parent="WIyWlLk6GJQsqaUBKTNV-1" vertex="1">
          <mxGeometry x="630" y="-1330" width="160" height="186" as="geometry" />
        </mxCell>
        <mxCell id="Q0Zz0vdiJcVVRRVcLZJk-41" value="+&amp;nbsp;emri: String" style="text;strokeColor=none;fillColor=none;align=left;verticalAlign=top;spacingLeft=4;spacingRight=4;overflow=hidden;rotatable=0;points=[[0,0.5],[1,0.5]];portConstraint=eastwest;whiteSpace=wrap;html=1;" parent="Q0Zz0vdiJcVVRRVcLZJk-40" vertex="1">
          <mxGeometry y="26" width="160" height="26" as="geometry" />
        </mxCell>
        <mxCell id="Q0Zz0vdiJcVVRRVcLZJk-42" value="+ tipi: String" style="text;strokeColor=none;fillColor=none;align=left;verticalAlign=top;spacingLeft=4;spacingRight=4;overflow=hidden;rotatable=0;points=[[0,0.5],[1,0.5]];portConstraint=eastwest;whiteSpace=wrap;html=1;" parent="Q0Zz0vdiJcVVRRVcLZJk-40" vertex="1">
          <mxGeometry y="52" width="160" height="26" as="geometry" />
        </mxCell>
        <mxCell id="Q0Zz0vdiJcVVRRVcLZJk-43" value="+ derguesi: String" style="text;strokeColor=none;fillColor=none;align=left;verticalAlign=top;spacingLeft=4;spacingRight=4;overflow=hidden;rotatable=0;points=[[0,0.5],[1,0.5]];portConstraint=eastwest;whiteSpace=wrap;html=1;" parent="Q0Zz0vdiJcVVRRVcLZJk-40" vertex="1">
          <mxGeometry y="78" width="160" height="26" as="geometry" />
        </mxCell>
        <mxCell id="Q0Zz0vdiJcVVRRVcLZJk-44" value="+ pranuesi: String" style="text;strokeColor=none;fillColor=none;align=left;verticalAlign=top;spacingLeft=4;spacingRight=4;overflow=hidden;rotatable=0;points=[[0,0.5],[1,0.5]];portConstraint=eastwest;whiteSpace=wrap;html=1;" parent="Q0Zz0vdiJcVVRRVcLZJk-40" vertex="1">
          <mxGeometry y="104" width="160" height="26" as="geometry" />
        </mxCell>
        <mxCell id="Q0Zz0vdiJcVVRRVcLZJk-45" value="+ dataDergimit: String" style="text;strokeColor=none;fillColor=none;align=left;verticalAlign=top;spacingLeft=4;spacingRight=4;overflow=hidden;rotatable=0;points=[[0,0.5],[1,0.5]];portConstraint=eastwest;whiteSpace=wrap;html=1;" parent="Q0Zz0vdiJcVVRRVcLZJk-40" vertex="1">
          <mxGeometry y="130" width="160" height="26" as="geometry" />
        </mxCell>
        <mxCell id="Q0Zz0vdiJcVVRRVcLZJk-46" value="+ dataHapjes: String" style="text;strokeColor=none;fillColor=none;align=left;verticalAlign=top;spacingLeft=4;spacingRight=4;overflow=hidden;rotatable=0;points=[[0,0.5],[1,0.5]];portConstraint=eastwest;whiteSpace=wrap;html=1;" parent="Q0Zz0vdiJcVVRRVcLZJk-40" vertex="1">
          <mxGeometry y="156" width="160" height="30" as="geometry" />
        </mxCell>
        <mxCell id="Q0Zz0vdiJcVVRRVcLZJk-75" style="edgeStyle=orthogonalEdgeStyle;rounded=0;orthogonalLoop=1;jettySize=auto;html=1;exitX=0.5;exitY=0;exitDx=0;exitDy=0;entryX=0.5;entryY=1;entryDx=0;entryDy=0;endArrow=none;endFill=0;" parent="WIyWlLk6GJQsqaUBKTNV-1" source="Q0Zz0vdiJcVVRRVcLZJk-48" target="zkfFHV4jXpPFQw0GAbJ--6" edge="1">
          <mxGeometry relative="1" as="geometry" />
        </mxCell>
        <mxCell id="Q0Zz0vdiJcVVRRVcLZJk-48" value="Njoftimi" style="swimlane;fontStyle=0;childLayout=stackLayout;horizontal=1;startSize=26;fillColor=none;horizontalStack=0;resizeParent=1;resizeParentMax=0;resizeLast=0;collapsible=1;marginBottom=0;whiteSpace=wrap;html=1;" parent="WIyWlLk6GJQsqaUBKTNV-1" vertex="1">
          <mxGeometry x="470" y="-776" width="160" height="156" as="geometry" />
        </mxCell>
        <mxCell id="Q0Zz0vdiJcVVRRVcLZJk-49" value="+&amp;nbsp;emri: String" style="text;strokeColor=none;fillColor=none;align=left;verticalAlign=top;spacingLeft=4;spacingRight=4;overflow=hidden;rotatable=0;points=[[0,0.5],[1,0.5]];portConstraint=eastwest;whiteSpace=wrap;html=1;" parent="Q0Zz0vdiJcVVRRVcLZJk-48" vertex="1">
          <mxGeometry y="26" width="160" height="26" as="geometry" />
        </mxCell>
        <mxCell id="Q0Zz0vdiJcVVRRVcLZJk-50" value="+ tipi: String" style="text;strokeColor=none;fillColor=none;align=left;verticalAlign=top;spacingLeft=4;spacingRight=4;overflow=hidden;rotatable=0;points=[[0,0.5],[1,0.5]];portConstraint=eastwest;whiteSpace=wrap;html=1;" parent="Q0Zz0vdiJcVVRRVcLZJk-48" vertex="1">
          <mxGeometry y="52" width="160" height="26" as="geometry" />
        </mxCell>
        <mxCell id="Q0Zz0vdiJcVVRRVcLZJk-51" value="+ email: String" style="text;strokeColor=none;fillColor=none;align=left;verticalAlign=top;spacingLeft=4;spacingRight=4;overflow=hidden;rotatable=0;points=[[0,0.5],[1,0.5]];portConstraint=eastwest;whiteSpace=wrap;html=1;" parent="Q0Zz0vdiJcVVRRVcLZJk-48" vertex="1">
          <mxGeometry y="78" width="160" height="26" as="geometry" />
        </mxCell>
        <mxCell id="Q0Zz0vdiJcVVRRVcLZJk-52" value="+ permbajtja: String" style="text;strokeColor=none;fillColor=none;align=left;verticalAlign=top;spacingLeft=4;spacingRight=4;overflow=hidden;rotatable=0;points=[[0,0.5],[1,0.5]];portConstraint=eastwest;whiteSpace=wrap;html=1;" parent="Q0Zz0vdiJcVVRRVcLZJk-48" vertex="1">
          <mxGeometry y="104" width="160" height="26" as="geometry" />
        </mxCell>
        <mxCell id="Q0Zz0vdiJcVVRRVcLZJk-53" value="+ dataDergimit: String" style="text;strokeColor=none;fillColor=none;align=left;verticalAlign=top;spacingLeft=4;spacingRight=4;overflow=hidden;rotatable=0;points=[[0,0.5],[1,0.5]];portConstraint=eastwest;whiteSpace=wrap;html=1;" parent="Q0Zz0vdiJcVVRRVcLZJk-48" vertex="1">
          <mxGeometry y="130" width="160" height="26" as="geometry" />
        </mxCell>
        <mxCell id="Q0Zz0vdiJcVVRRVcLZJk-56" style="edgeStyle=orthogonalEdgeStyle;rounded=0;orthogonalLoop=1;jettySize=auto;html=1;exitX=0.479;exitY=1.25;exitDx=0;exitDy=0;entryX=0;entryY=0.5;entryDx=0;entryDy=0;endArrow=diamondThin;endFill=1;strokeWidth=1;endSize=12;exitPerimeter=0;" parent="WIyWlLk6GJQsqaUBKTNV-1" source="qlR7j_K9BmZmSB4jI-02-13" target="Q0Zz0vdiJcVVRRVcLZJk-4" edge="1">
          <mxGeometry relative="1" as="geometry">
            <Array as="points">
              <mxPoint x="320" y="-519" />
            </Array>
          </mxGeometry>
        </mxCell>
        <mxCell id="Q0Zz0vdiJcVVRRVcLZJk-58" style="edgeStyle=orthogonalEdgeStyle;rounded=0;orthogonalLoop=1;jettySize=auto;html=1;exitX=1;exitY=0.5;exitDx=0;exitDy=0;entryX=0;entryY=0.5;entryDx=0;entryDy=0;endArrow=diamondThin;endFill=1;endSize=12;" parent="WIyWlLk6GJQsqaUBKTNV-1" source="Q0Zz0vdiJcVVRRVcLZJk-4" target="Q0Zz0vdiJcVVRRVcLZJk-34" edge="1">
          <mxGeometry relative="1" as="geometry" />
        </mxCell>
        <mxCell id="Q0Zz0vdiJcVVRRVcLZJk-60" style="edgeStyle=orthogonalEdgeStyle;rounded=0;orthogonalLoop=1;jettySize=auto;html=1;exitX=0.5;exitY=0;exitDx=0;exitDy=0;entryX=0.492;entryY=0.982;entryDx=0;entryDy=0;entryPerimeter=0;endArrow=none;endFill=0;" parent="WIyWlLk6GJQsqaUBKTNV-1" source="Q0Zz0vdiJcVVRRVcLZJk-32" target="qlR7j_K9BmZmSB4jI-02-32" edge="1">
          <mxGeometry relative="1" as="geometry" />
        </mxCell>
        <mxCell id="Q0Zz0vdiJcVVRRVcLZJk-63" style="edgeStyle=orthogonalEdgeStyle;rounded=0;orthogonalLoop=1;jettySize=auto;html=1;exitX=1;exitY=0.5;exitDx=0;exitDy=0;entryX=0.5;entryY=0;entryDx=0;entryDy=0;endArrow=none;endFill=0;startArrow=diamondThin;startFill=0;endSize=12;startSize=14;" parent="WIyWlLk6GJQsqaUBKTNV-1" source="qlR7j_K9BmZmSB4jI-02-7" target="qlR7j_K9BmZmSB4jI-02-9" edge="1">
          <mxGeometry relative="1" as="geometry">
            <Array as="points">
              <mxPoint x="200" y="-881" />
              <mxPoint x="200" y="-780" />
              <mxPoint x="323" y="-780" />
            </Array>
          </mxGeometry>
        </mxCell>
        <mxCell id="Q0Zz0vdiJcVVRRVcLZJk-64" style="edgeStyle=orthogonalEdgeStyle;rounded=0;orthogonalLoop=1;jettySize=auto;html=1;exitX=1;exitY=0.5;exitDx=0;exitDy=0;entryX=0;entryY=0.5;entryDx=0;entryDy=0;endArrow=block;endFill=0;startSize=14;endSize=8;" parent="WIyWlLk6GJQsqaUBKTNV-1" source="qlR7j_K9BmZmSB4jI-02-4" target="zkfFHV4jXpPFQw0GAbJ--6" edge="1">
          <mxGeometry relative="1" as="geometry" />
        </mxCell>
        <mxCell id="Q0Zz0vdiJcVVRRVcLZJk-66" style="edgeStyle=orthogonalEdgeStyle;rounded=0;orthogonalLoop=1;jettySize=auto;html=1;exitX=0;exitY=0.5;exitDx=0;exitDy=0;entryX=1;entryY=0.5;entryDx=0;entryDy=0;endArrow=block;endFill=0;endSize=8;" parent="WIyWlLk6GJQsqaUBKTNV-1" source="qlR7j_K9BmZmSB4jI-02-119" target="zkfFHV4jXpPFQw0GAbJ--10" edge="1">
          <mxGeometry relative="1" as="geometry" />
        </mxCell>
        <mxCell id="Q0Zz0vdiJcVVRRVcLZJk-67" style="edgeStyle=orthogonalEdgeStyle;rounded=0;orthogonalLoop=1;jettySize=auto;html=1;exitX=1;exitY=0.5;exitDx=0;exitDy=0;entryX=0.25;entryY=0;entryDx=0;entryDy=0;endArrow=diamondThin;endFill=0;startSize=12;endSize=12;" parent="WIyWlLk6GJQsqaUBKTNV-1" source="qlR7j_K9BmZmSB4jI-02-119" target="Q0Zz0vdiJcVVRRVcLZJk-32" edge="1">
          <mxGeometry relative="1" as="geometry" />
        </mxCell>
        <mxCell id="Q0Zz0vdiJcVVRRVcLZJk-69" style="edgeStyle=orthogonalEdgeStyle;rounded=0;orthogonalLoop=1;jettySize=auto;html=1;exitX=0.25;exitY=0;exitDx=0;exitDy=0;entryX=0.671;entryY=1.019;entryDx=0;entryDy=0;entryPerimeter=0;endArrow=none;endFill=0;startArrow=diamondThin;startFill=1;endSize=8;startSize=14;" parent="WIyWlLk6GJQsqaUBKTNV-1" source="qlR7j_K9BmZmSB4jI-02-0" target="Q0Zz0vdiJcVVRRVcLZJk-15" edge="1">
          <mxGeometry relative="1" as="geometry" />
        </mxCell>
        <mxCell id="Q0Zz0vdiJcVVRRVcLZJk-70" style="edgeStyle=orthogonalEdgeStyle;rounded=0;orthogonalLoop=1;jettySize=auto;html=1;exitX=1;exitY=0.5;exitDx=0;exitDy=0;entryX=0;entryY=0.5;entryDx=0;entryDy=0;startArrow=none;startFill=0;endArrow=diamondThin;endFill=1;endSize=14;" parent="WIyWlLk6GJQsqaUBKTNV-1" source="Q0Zz0vdiJcVVRRVcLZJk-31" target="qlR7j_K9BmZmSB4jI-02-1" edge="1">
          <mxGeometry relative="1" as="geometry">
            <Array as="points">
              <mxPoint x="-80" y="-1161" />
              <mxPoint x="-80" y="-1041" />
            </Array>
          </mxGeometry>
        </mxCell>
        <mxCell id="Q0Zz0vdiJcVVRRVcLZJk-71" style="edgeStyle=orthogonalEdgeStyle;rounded=0;orthogonalLoop=1;jettySize=auto;html=1;exitX=0.75;exitY=0;exitDx=0;exitDy=0;entryX=0.465;entryY=1.173;entryDx=0;entryDy=0;entryPerimeter=0;endArrow=none;endFill=0;startArrow=diamondThin;startFill=1;startSize=14;" parent="WIyWlLk6GJQsqaUBKTNV-1" source="qlR7j_K9BmZmSB4jI-02-0" target="Q0Zz0vdiJcVVRRVcLZJk-23" edge="1">
          <mxGeometry relative="1" as="geometry">
            <Array as="points">
              <mxPoint x="124" y="-1100" />
              <mxPoint x="472" y="-1100" />
            </Array>
          </mxGeometry>
        </mxCell>
        <mxCell id="Q0Zz0vdiJcVVRRVcLZJk-73" style="edgeStyle=orthogonalEdgeStyle;rounded=0;orthogonalLoop=1;jettySize=auto;html=1;exitX=0.5;exitY=0;exitDx=0;exitDy=0;entryX=0.764;entryY=0.977;entryDx=0;entryDy=0;entryPerimeter=0;endArrow=none;endFill=0;dashed=1;startArrow=open;startFill=0;startSize=10;" parent="WIyWlLk6GJQsqaUBKTNV-1" source="Q0Zz0vdiJcVVRRVcLZJk-1" target="qlR7j_K9BmZmSB4jI-02-121" edge="1">
          <mxGeometry relative="1" as="geometry" />
        </mxCell>
        <mxCell id="Q0Zz0vdiJcVVRRVcLZJk-80" style="edgeStyle=orthogonalEdgeStyle;rounded=0;orthogonalLoop=1;jettySize=auto;html=1;exitX=0;exitY=0.5;exitDx=0;exitDy=0;entryX=1;entryY=0.5;entryDx=0;entryDy=0;endArrow=none;endFill=0;" parent="WIyWlLk6GJQsqaUBKTNV-1" source="Q0Zz0vdiJcVVRRVcLZJk-51" target="qlR7j_K9BmZmSB4jI-02-11" edge="1">
          <mxGeometry relative="1" as="geometry" />
        </mxCell>
        <mxCell id="Q0Zz0vdiJcVVRRVcLZJk-81" value="1..*" style="text;html=1;strokeColor=none;fillColor=none;align=center;verticalAlign=middle;whiteSpace=wrap;rounded=0;" parent="WIyWlLk6GJQsqaUBKTNV-1" vertex="1">
          <mxGeometry x="-30" y="-1020" width="60" height="30" as="geometry" />
        </mxCell>
        <mxCell id="Q0Zz0vdiJcVVRRVcLZJk-82" value="1..*" style="text;html=1;strokeColor=none;fillColor=none;align=center;verticalAlign=middle;whiteSpace=wrap;rounded=0;" parent="WIyWlLk6GJQsqaUBKTNV-1" vertex="1">
          <mxGeometry x="-30" y="-1073" width="60" height="30" as="geometry" />
        </mxCell>
        <mxCell id="Q0Zz0vdiJcVVRRVcLZJk-83" value="1..*" style="text;html=1;strokeColor=none;fillColor=none;align=center;verticalAlign=middle;whiteSpace=wrap;rounded=0;" parent="WIyWlLk6GJQsqaUBKTNV-1" vertex="1">
          <mxGeometry x="10" y="-1110" width="60" height="30" as="geometry" />
        </mxCell>
        <mxCell id="Q0Zz0vdiJcVVRRVcLZJk-84" value="1..*" style="text;html=1;strokeColor=none;fillColor=none;align=center;verticalAlign=middle;whiteSpace=wrap;rounded=0;" parent="WIyWlLk6GJQsqaUBKTNV-1" vertex="1">
          <mxGeometry x="50" y="-1110" width="60" height="30" as="geometry" />
        </mxCell>
        <mxCell id="Q0Zz0vdiJcVVRRVcLZJk-85" value="0..*" style="text;html=1;strokeColor=none;fillColor=none;align=center;verticalAlign=middle;whiteSpace=wrap;rounded=0;" parent="WIyWlLk6GJQsqaUBKTNV-1" vertex="1">
          <mxGeometry x="193" y="-1148" width="60" height="30" as="geometry" />
        </mxCell>
        <mxCell id="Q0Zz0vdiJcVVRRVcLZJk-86" value="0..*" style="text;html=1;strokeColor=none;fillColor=none;align=center;verticalAlign=middle;whiteSpace=wrap;rounded=0;" parent="WIyWlLk6GJQsqaUBKTNV-1" vertex="1">
          <mxGeometry x="50" y="-1169" width="60" height="30" as="geometry" />
        </mxCell>
        <mxCell id="Q0Zz0vdiJcVVRRVcLZJk-87" value="0..*" style="text;html=1;strokeColor=none;fillColor=none;align=center;verticalAlign=middle;whiteSpace=wrap;rounded=0;" parent="WIyWlLk6GJQsqaUBKTNV-1" vertex="1">
          <mxGeometry x="-120" y="-1020" width="60" height="30" as="geometry" />
        </mxCell>
        <mxCell id="Q0Zz0vdiJcVVRRVcLZJk-88" value="0..*" style="text;html=1;strokeColor=none;fillColor=none;align=center;verticalAlign=middle;whiteSpace=wrap;rounded=0;" parent="WIyWlLk6GJQsqaUBKTNV-1" vertex="1">
          <mxGeometry x="-132" y="-1188" width="60" height="30" as="geometry" />
        </mxCell>
        <mxCell id="Q0Zz0vdiJcVVRRVcLZJk-89" value="1..*" style="text;html=1;strokeColor=none;fillColor=none;align=center;verticalAlign=middle;whiteSpace=wrap;rounded=0;" parent="WIyWlLk6GJQsqaUBKTNV-1" vertex="1">
          <mxGeometry x="-29" y="-913" width="60" height="30" as="geometry" />
        </mxCell>
        <mxCell id="Q0Zz0vdiJcVVRRVcLZJk-90" value="1..*" style="text;html=1;strokeColor=none;fillColor=none;align=center;verticalAlign=middle;whiteSpace=wrap;rounded=0;" parent="WIyWlLk6GJQsqaUBKTNV-1" vertex="1">
          <mxGeometry x="-170" y="-859" width="60" height="30" as="geometry" />
        </mxCell>
        <mxCell id="Q0Zz0vdiJcVVRRVcLZJk-91" value="1..*" style="text;html=1;strokeColor=none;fillColor=none;align=center;verticalAlign=middle;whiteSpace=wrap;rounded=0;" parent="WIyWlLk6GJQsqaUBKTNV-1" vertex="1">
          <mxGeometry x="80" y="-760" width="60" height="30" as="geometry" />
        </mxCell>
        <mxCell id="Q0Zz0vdiJcVVRRVcLZJk-92" value="1..*" style="text;html=1;strokeColor=none;fillColor=none;align=center;verticalAlign=middle;whiteSpace=wrap;rounded=0;" parent="WIyWlLk6GJQsqaUBKTNV-1" vertex="1">
          <mxGeometry x="270" y="-770" width="60" height="30" as="geometry" />
        </mxCell>
        <mxCell id="Q0Zz0vdiJcVVRRVcLZJk-93" value="1..*" style="text;html=1;strokeColor=none;fillColor=none;align=center;verticalAlign=middle;whiteSpace=wrap;rounded=0;" parent="WIyWlLk6GJQsqaUBKTNV-1" vertex="1">
          <mxGeometry x="150" y="-913" width="60" height="30" as="geometry" />
        </mxCell>
        <mxCell id="Q0Zz0vdiJcVVRRVcLZJk-94" value="0..*" style="text;html=1;strokeColor=none;fillColor=none;align=center;verticalAlign=middle;whiteSpace=wrap;rounded=0;" parent="WIyWlLk6GJQsqaUBKTNV-1" vertex="1">
          <mxGeometry x="424" y="-720" width="60" height="30" as="geometry" />
        </mxCell>
        <mxCell id="Q0Zz0vdiJcVVRRVcLZJk-95" value="1" style="text;html=1;strokeColor=none;fillColor=none;align=center;verticalAlign=middle;whiteSpace=wrap;rounded=0;" parent="WIyWlLk6GJQsqaUBKTNV-1" vertex="1">
          <mxGeometry x="374" y="-710" width="60" height="30" as="geometry" />
        </mxCell>
        <mxCell id="Q0Zz0vdiJcVVRRVcLZJk-96" value="0..*" style="text;html=1;strokeColor=none;fillColor=none;align=center;verticalAlign=middle;whiteSpace=wrap;rounded=0;" parent="WIyWlLk6GJQsqaUBKTNV-1" vertex="1">
          <mxGeometry x="490" y="-806" width="60" height="30" as="geometry" />
        </mxCell>
        <mxCell id="Q0Zz0vdiJcVVRRVcLZJk-97" value="1..*" style="text;html=1;strokeColor=none;fillColor=none;align=center;verticalAlign=middle;whiteSpace=wrap;rounded=0;" parent="WIyWlLk6GJQsqaUBKTNV-1" vertex="1">
          <mxGeometry x="563" y="-550" width="60" height="30" as="geometry" />
        </mxCell>
        <mxCell id="Q0Zz0vdiJcVVRRVcLZJk-98" value="0..*" style="text;html=1;strokeColor=none;fillColor=none;align=center;verticalAlign=middle;whiteSpace=wrap;rounded=0;" parent="WIyWlLk6GJQsqaUBKTNV-1" vertex="1">
          <mxGeometry x="786" y="-776" width="60" height="30" as="geometry" />
        </mxCell>
        <mxCell id="Q0Zz0vdiJcVVRRVcLZJk-99" value="1..*" style="text;html=1;strokeColor=none;fillColor=none;align=center;verticalAlign=middle;whiteSpace=wrap;rounded=0;" parent="WIyWlLk6GJQsqaUBKTNV-1" vertex="1">
          <mxGeometry x="900" y="-872" width="60" height="30" as="geometry" />
        </mxCell>
        <mxCell id="Q0Zz0vdiJcVVRRVcLZJk-100" value="1" style="text;html=1;strokeColor=none;fillColor=none;align=center;verticalAlign=middle;whiteSpace=wrap;rounded=0;" parent="WIyWlLk6GJQsqaUBKTNV-1" vertex="1">
          <mxGeometry x="640" y="-857" width="60" height="30" as="geometry" />
        </mxCell>
        <mxCell id="Q0Zz0vdiJcVVRRVcLZJk-101" value="1" style="text;html=1;strokeColor=none;fillColor=none;align=center;verticalAlign=middle;whiteSpace=wrap;rounded=0;" parent="WIyWlLk6GJQsqaUBKTNV-1" vertex="1">
          <mxGeometry x="650" y="-620" width="60" height="30" as="geometry" />
        </mxCell>
        <mxCell id="Q0Zz0vdiJcVVRRVcLZJk-102" value="1..*" style="text;html=1;strokeColor=none;fillColor=none;align=center;verticalAlign=middle;whiteSpace=wrap;rounded=0;" parent="WIyWlLk6GJQsqaUBKTNV-1" vertex="1">
          <mxGeometry x="900" y="-990" width="60" height="30" as="geometry" />
        </mxCell>
        <mxCell id="Q0Zz0vdiJcVVRRVcLZJk-103" value="1" style="text;html=1;strokeColor=none;fillColor=none;align=center;verticalAlign=middle;whiteSpace=wrap;rounded=0;" parent="WIyWlLk6GJQsqaUBKTNV-1" vertex="1">
          <mxGeometry x="450" y="-1144" width="60" height="30" as="geometry" />
        </mxCell>
        <mxCell id="Q0Zz0vdiJcVVRRVcLZJk-104" value="1" style="text;html=1;strokeColor=none;fillColor=none;align=center;verticalAlign=middle;whiteSpace=wrap;rounded=0;" parent="WIyWlLk6GJQsqaUBKTNV-1" vertex="1">
          <mxGeometry x="110" y="-1103" width="60" height="30" as="geometry" />
        </mxCell>
        <mxCell id="Q0Zz0vdiJcVVRRVcLZJk-105" value="0..*" style="text;html=1;strokeColor=none;fillColor=none;align=center;verticalAlign=middle;whiteSpace=wrap;rounded=0;" parent="WIyWlLk6GJQsqaUBKTNV-1" vertex="1">
          <mxGeometry x="702" y="-1144" width="60" height="30" as="geometry" />
        </mxCell>
        <mxCell id="Q0Zz0vdiJcVVRRVcLZJk-106" value="1..*" style="text;html=1;strokeColor=none;fillColor=none;align=center;verticalAlign=middle;whiteSpace=wrap;rounded=0;" parent="WIyWlLk6GJQsqaUBKTNV-1" vertex="1">
          <mxGeometry x="731" y="-990" width="60" height="30" as="geometry" />
        </mxCell>
        <mxCell id="Q0Zz0vdiJcVVRRVcLZJk-107" value="1..*" style="text;html=1;strokeColor=none;fillColor=none;align=center;verticalAlign=middle;whiteSpace=wrap;rounded=0;" parent="WIyWlLk6GJQsqaUBKTNV-1" vertex="1">
          <mxGeometry x="820" y="-872" width="60" height="30" as="geometry" />
        </mxCell>
        <mxCell id="Q0Zz0vdiJcVVRRVcLZJk-108" value="1..*" style="text;html=1;strokeColor=none;fillColor=none;align=center;verticalAlign=middle;whiteSpace=wrap;rounded=0;" parent="WIyWlLk6GJQsqaUBKTNV-1" vertex="1">
          <mxGeometry x="444" y="-990" width="60" height="30" as="geometry" />
        </mxCell>
        <mxCell id="Q0Zz0vdiJcVVRRVcLZJk-109" value="1..*" style="text;html=1;strokeColor=none;fillColor=none;align=center;verticalAlign=middle;whiteSpace=wrap;rounded=0;" parent="WIyWlLk6GJQsqaUBKTNV-1" vertex="1">
          <mxGeometry x="520" y="-990" width="60" height="30" as="geometry" />
        </mxCell>
        <mxCell id="Q0Zz0vdiJcVVRRVcLZJk-110" value="1..*" style="text;html=1;strokeColor=none;fillColor=none;align=center;verticalAlign=middle;whiteSpace=wrap;rounded=0;" parent="WIyWlLk6GJQsqaUBKTNV-1" vertex="1">
          <mxGeometry x="240" y="-992" width="60" height="30" as="geometry" />
        </mxCell>
        <mxCell id="Q0Zz0vdiJcVVRRVcLZJk-111" value="1..*" style="text;html=1;strokeColor=none;fillColor=none;align=center;verticalAlign=middle;whiteSpace=wrap;rounded=0;" parent="WIyWlLk6GJQsqaUBKTNV-1" vertex="1">
          <mxGeometry x="149" y="-990" width="60" height="30" as="geometry" />
        </mxCell>
        <mxCell id="Q0Zz0vdiJcVVRRVcLZJk-112" value="0..*" style="text;html=1;strokeColor=none;fillColor=none;align=center;verticalAlign=middle;whiteSpace=wrap;rounded=0;" parent="WIyWlLk6GJQsqaUBKTNV-1" vertex="1">
          <mxGeometry x="320" y="-612" width="60" height="30" as="geometry" />
        </mxCell>
        <mxCell id="Q0Zz0vdiJcVVRRVcLZJk-113" value="1" style="text;html=1;strokeColor=none;fillColor=none;align=center;verticalAlign=middle;whiteSpace=wrap;rounded=0;" parent="WIyWlLk6GJQsqaUBKTNV-1" vertex="1">
          <mxGeometry x="210" y="-700" width="60" height="30" as="geometry" />
        </mxCell>
        <mxCell id="Q0Zz0vdiJcVVRRVcLZJk-114" value="1..*" style="text;html=1;strokeColor=none;fillColor=none;align=center;verticalAlign=middle;whiteSpace=wrap;rounded=0;" parent="WIyWlLk6GJQsqaUBKTNV-1" vertex="1">
          <mxGeometry x="771" y="-510" width="60" height="30" as="geometry" />
        </mxCell>
        <mxCell id="BWUZBZqY6qQgWq2PaEu_-0" value="ka" style="text;html=1;strokeColor=none;fillColor=none;align=center;verticalAlign=middle;whiteSpace=wrap;rounded=0;" parent="WIyWlLk6GJQsqaUBKTNV-1" vertex="1">
          <mxGeometry x="10" y="-1144" width="60" height="30" as="geometry" />
        </mxCell>
        <mxCell id="BWUZBZqY6qQgWq2PaEu_-1" value="shikon" style="text;html=1;strokeColor=none;fillColor=none;align=center;verticalAlign=middle;whiteSpace=wrap;rounded=0;" parent="WIyWlLk6GJQsqaUBKTNV-1" vertex="1">
          <mxGeometry x="-106" y="-913" width="56" height="30" as="geometry" />
        </mxCell>
        <mxCell id="BWUZBZqY6qQgWq2PaEu_-2" value="ka&amp;nbsp;" style="text;html=1;strokeColor=none;fillColor=none;align=center;verticalAlign=middle;whiteSpace=wrap;rounded=0;" parent="WIyWlLk6GJQsqaUBKTNV-1" vertex="1">
          <mxGeometry x="-60" y="-1070" width="56" height="30" as="geometry" />
        </mxCell>
        <mxCell id="BWUZBZqY6qQgWq2PaEu_-3" value="krijon" style="text;html=1;strokeColor=none;fillColor=none;align=center;verticalAlign=middle;whiteSpace=wrap;rounded=0;" parent="WIyWlLk6GJQsqaUBKTNV-1" vertex="1">
          <mxGeometry x="114" y="-1148" width="56" height="30" as="geometry" />
        </mxCell>
        <mxCell id="BWUZBZqY6qQgWq2PaEu_-4" value="krijon" style="text;html=1;strokeColor=none;fillColor=none;align=center;verticalAlign=middle;whiteSpace=wrap;rounded=0;" parent="WIyWlLk6GJQsqaUBKTNV-1" vertex="1">
          <mxGeometry x="-79" y="-1022" width="56" height="30" as="geometry" />
        </mxCell>
        <mxCell id="BWUZBZqY6qQgWq2PaEu_-5" value="eshte" style="text;html=1;strokeColor=none;fillColor=none;align=center;verticalAlign=middle;whiteSpace=wrap;rounded=0;" parent="WIyWlLk6GJQsqaUBKTNV-1" vertex="1">
          <mxGeometry x="200" y="-994" width="56" height="30" as="geometry" />
        </mxCell>
        <mxCell id="BWUZBZqY6qQgWq2PaEu_-6" value="eshte" style="text;html=1;strokeColor=none;fillColor=none;align=center;verticalAlign=middle;whiteSpace=wrap;rounded=0;" parent="WIyWlLk6GJQsqaUBKTNV-1" vertex="1">
          <mxGeometry x="481" y="-990" width="56" height="30" as="geometry" />
        </mxCell>
        <mxCell id="BWUZBZqY6qQgWq2PaEu_-7" value="mban" style="text;html=1;strokeColor=none;fillColor=none;align=center;verticalAlign=middle;whiteSpace=wrap;rounded=0;" parent="WIyWlLk6GJQsqaUBKTNV-1" vertex="1">
          <mxGeometry x="94" y="-796" width="56" height="30" as="geometry" />
        </mxCell>
        <mxCell id="BWUZBZqY6qQgWq2PaEu_-8" value="shikon" style="text;html=1;strokeColor=none;fillColor=none;align=center;verticalAlign=middle;whiteSpace=wrap;rounded=0;" parent="WIyWlLk6GJQsqaUBKTNV-1" vertex="1">
          <mxGeometry x="274" y="-1133" width="56" height="30" as="geometry" />
        </mxCell>
        <mxCell id="BWUZBZqY6qQgWq2PaEu_-9" value="ndervepron" style="text;html=1;strokeColor=none;fillColor=none;align=center;verticalAlign=middle;whiteSpace=wrap;rounded=0;" parent="WIyWlLk6GJQsqaUBKTNV-1" vertex="1">
          <mxGeometry x="571" y="-1130" width="56" height="30" as="geometry" />
        </mxCell>
        <mxCell id="BWUZBZqY6qQgWq2PaEu_-10" value="kerkon" style="text;html=1;strokeColor=none;fillColor=none;align=center;verticalAlign=middle;whiteSpace=wrap;rounded=0;" parent="WIyWlLk6GJQsqaUBKTNV-1" vertex="1">
          <mxGeometry x="393" y="-1100" width="56" height="30" as="geometry" />
        </mxCell>
        <mxCell id="BWUZBZqY6qQgWq2PaEu_-11" value="ndervepron" style="text;html=1;strokeColor=none;fillColor=none;align=center;verticalAlign=middle;whiteSpace=wrap;rounded=0;" parent="WIyWlLk6GJQsqaUBKTNV-1" vertex="1">
          <mxGeometry x="935" y="-924" width="56" height="30" as="geometry" />
        </mxCell>
        <mxCell id="BWUZBZqY6qQgWq2PaEu_-12" value="pjese e" style="text;html=1;strokeColor=none;fillColor=none;align=center;verticalAlign=middle;whiteSpace=wrap;rounded=0;" parent="WIyWlLk6GJQsqaUBKTNV-1" vertex="1">
          <mxGeometry x="783" y="-950" width="56" height="30" as="geometry" />
        </mxCell>
        <mxCell id="BWUZBZqY6qQgWq2PaEu_-13" value="zgjedh" style="text;html=1;strokeColor=none;fillColor=none;align=center;verticalAlign=middle;whiteSpace=wrap;rounded=0;" parent="WIyWlLk6GJQsqaUBKTNV-1" vertex="1">
          <mxGeometry x="735" y="-691" width="56" height="30" as="geometry" />
        </mxCell>
        <mxCell id="BWUZBZqY6qQgWq2PaEu_-14" value="zgjedh" style="text;html=1;strokeColor=none;fillColor=none;align=center;verticalAlign=middle;whiteSpace=wrap;rounded=0;" parent="WIyWlLk6GJQsqaUBKTNV-1" vertex="1">
          <mxGeometry x="638" y="-740" width="56" height="30" as="geometry" />
        </mxCell>
        <mxCell id="BWUZBZqY6qQgWq2PaEu_-15" value="merr" style="text;html=1;strokeColor=none;fillColor=none;align=center;verticalAlign=middle;whiteSpace=wrap;rounded=0;" parent="WIyWlLk6GJQsqaUBKTNV-1" vertex="1">
          <mxGeometry x="434" y="-862" width="56" height="30" as="geometry" />
        </mxCell>
        <mxCell id="BWUZBZqY6qQgWq2PaEu_-16" value="dergon" style="text;html=1;strokeColor=none;fillColor=none;align=center;verticalAlign=middle;whiteSpace=wrap;rounded=0;" parent="WIyWlLk6GJQsqaUBKTNV-1" vertex="1">
          <mxGeometry x="400" y="-670" width="56" height="30" as="geometry" />
        </mxCell>
        <mxCell id="BWUZBZqY6qQgWq2PaEu_-17" value="pjese e" style="text;html=1;strokeColor=none;fillColor=none;align=center;verticalAlign=middle;whiteSpace=wrap;rounded=0;" parent="WIyWlLk6GJQsqaUBKTNV-1" vertex="1">
          <mxGeometry x="180" y="-670" width="56" height="30" as="geometry" />
        </mxCell>
        <mxCell id="BWUZBZqY6qQgWq2PaEu_-18" value="1..*" style="text;html=1;strokeColor=none;fillColor=none;align=center;verticalAlign=middle;whiteSpace=wrap;rounded=0;" parent="WIyWlLk6GJQsqaUBKTNV-1" vertex="1">
          <mxGeometry x="444" y="-1046" width="60" height="30" as="geometry" />
        </mxCell>
        <mxCell id="BWUZBZqY6qQgWq2PaEu_-19" value="1..*" style="text;html=1;strokeColor=none;fillColor=none;align=center;verticalAlign=middle;whiteSpace=wrap;rounded=0;" parent="WIyWlLk6GJQsqaUBKTNV-1" vertex="1">
          <mxGeometry x="791" y="-1073" width="60" height="30" as="geometry" />
        </mxCell>
        <mxCell id="BWUZBZqY6qQgWq2PaEu_-22" value="1..*" style="text;html=1;strokeColor=none;fillColor=none;align=center;verticalAlign=middle;whiteSpace=wrap;rounded=0;" parent="WIyWlLk6GJQsqaUBKTNV-1" vertex="1">
          <mxGeometry x="149" y="-1070" width="60" height="30" as="geometry" />
        </mxCell>
        <mxCell id="BWUZBZqY6qQgWq2PaEu_-23" value="1..*" style="text;html=1;strokeColor=none;fillColor=none;align=center;verticalAlign=middle;whiteSpace=wrap;rounded=0;" parent="WIyWlLk6GJQsqaUBKTNV-1" vertex="1">
          <mxGeometry x="354" y="-883" width="60" height="30" as="geometry" />
        </mxCell>
        <mxCell id="jsOQoZ8nV0DmSQKEKL1x-0" value="aplikon" style="text;html=1;strokeColor=none;fillColor=none;align=center;verticalAlign=middle;whiteSpace=wrap;rounded=0;" vertex="1" parent="WIyWlLk6GJQsqaUBKTNV-1">
          <mxGeometry x="232" y="-806" width="56" height="30" as="geometry" />
        </mxCell>
        <mxCell id="jsOQoZ8nV0DmSQKEKL1x-1" value="ka" style="text;html=1;strokeColor=none;fillColor=none;align=center;verticalAlign=middle;whiteSpace=wrap;rounded=0;" vertex="1" parent="WIyWlLk6GJQsqaUBKTNV-1">
          <mxGeometry x="422" y="-546" width="56" height="30" as="geometry" />
        </mxCell>
        <mxCell id="jsOQoZ8nV0DmSQKEKL1x-2" value="" style="triangle;whiteSpace=wrap;html=1;" vertex="1" parent="WIyWlLk6GJQsqaUBKTNV-1">
          <mxGeometry x="460.75" y="-536" width="8" height="10" as="geometry" />
        </mxCell>
        <mxCell id="jsOQoZ8nV0DmSQKEKL1x-3" value="" style="triangle;whiteSpace=wrap;html=1;" vertex="1" parent="WIyWlLk6GJQsqaUBKTNV-1">
          <mxGeometry x="449.75" y="-660" width="8" height="10" as="geometry" />
        </mxCell>
        <mxCell id="jsOQoZ8nV0DmSQKEKL1x-4" value="" style="triangle;whiteSpace=wrap;html=1;" vertex="1" parent="WIyWlLk6GJQsqaUBKTNV-1">
          <mxGeometry x="229.75" y="-660" width="8" height="10" as="geometry" />
        </mxCell>
        <mxCell id="jsOQoZ8nV0DmSQKEKL1x-5" value="" style="triangle;whiteSpace=wrap;html=1;" vertex="1" parent="WIyWlLk6GJQsqaUBKTNV-1">
          <mxGeometry x="281.75" y="-796" width="8" height="10" as="geometry" />
        </mxCell>
        <mxCell id="jsOQoZ8nV0DmSQKEKL1x-6" value="" style="triangle;whiteSpace=wrap;html=1;" vertex="1" parent="WIyWlLk6GJQsqaUBKTNV-1">
          <mxGeometry x="479.75" y="-852" width="8" height="10" as="geometry" />
        </mxCell>
        <mxCell id="jsOQoZ8nV0DmSQKEKL1x-7" value="" style="triangle;whiteSpace=wrap;html=1;" vertex="1" parent="WIyWlLk6GJQsqaUBKTNV-1">
          <mxGeometry x="832.75" y="-939" width="8" height="10" as="geometry" />
        </mxCell>
        <mxCell id="jsOQoZ8nV0DmSQKEKL1x-8" value="" style="triangle;whiteSpace=wrap;html=1;" vertex="1" parent="WIyWlLk6GJQsqaUBKTNV-1">
          <mxGeometry x="525.75" y="-980" width="8" height="10" as="geometry" />
        </mxCell>
        <mxCell id="jsOQoZ8nV0DmSQKEKL1x-9" value="" style="triangle;whiteSpace=wrap;html=1;" vertex="1" parent="WIyWlLk6GJQsqaUBKTNV-1">
          <mxGeometry x="245.75" y="-984" width="8" height="10" as="geometry" />
        </mxCell>
        <mxCell id="jsOQoZ8nV0DmSQKEKL1x-10" value="" style="triangle;whiteSpace=wrap;html=1;" vertex="1" parent="WIyWlLk6GJQsqaUBKTNV-1">
          <mxGeometry x="443.75" y="-1089" width="8" height="10" as="geometry" />
        </mxCell>
        <mxCell id="jsOQoZ8nV0DmSQKEKL1x-11" value="" style="triangle;whiteSpace=wrap;html=1;" vertex="1" parent="WIyWlLk6GJQsqaUBKTNV-1">
          <mxGeometry x="634.75" y="-1120" width="8" height="10" as="geometry" />
        </mxCell>
        <mxCell id="jsOQoZ8nV0DmSQKEKL1x-12" value="" style="triangle;whiteSpace=wrap;html=1;" vertex="1" parent="WIyWlLk6GJQsqaUBKTNV-1">
          <mxGeometry x="322.75" y="-1123" width="8" height="10" as="geometry" />
        </mxCell>
        <mxCell id="jsOQoZ8nV0DmSQKEKL1x-13" value="" style="triangle;whiteSpace=wrap;html=1;" vertex="1" parent="WIyWlLk6GJQsqaUBKTNV-1">
          <mxGeometry x="160.75" y="-1138" width="8" height="10" as="geometry" />
        </mxCell>
        <mxCell id="jsOQoZ8nV0DmSQKEKL1x-14" value="" style="triangle;whiteSpace=wrap;html=1;flipH=1;" vertex="1" parent="WIyWlLk6GJQsqaUBKTNV-1">
          <mxGeometry x="-53.25" y="-1060" width="8" height="10" as="geometry" />
        </mxCell>
        <mxCell id="jsOQoZ8nV0DmSQKEKL1x-15" value="" style="triangle;whiteSpace=wrap;html=1;flipH=1;" vertex="1" parent="WIyWlLk6GJQsqaUBKTNV-1">
          <mxGeometry x="-78.25" y="-1013" width="8" height="10" as="geometry" />
        </mxCell>
        <mxCell id="jsOQoZ8nV0DmSQKEKL1x-16" value="" style="triangle;whiteSpace=wrap;html=1;flipH=1;" vertex="1" parent="WIyWlLk6GJQsqaUBKTNV-1">
          <mxGeometry x="-108.25" y="-903" width="8" height="10" as="geometry" />
        </mxCell>
        <mxCell id="jsOQoZ8nV0DmSQKEKL1x-17" value="" style="triangle;whiteSpace=wrap;html=1;flipH=1;direction=south;" vertex="1" parent="WIyWlLk6GJQsqaUBKTNV-1">
          <mxGeometry x="93.75" y="-785" width="10" height="8" as="geometry" />
        </mxCell>
        <mxCell id="jsOQoZ8nV0DmSQKEKL1x-18" value="" style="triangle;whiteSpace=wrap;html=1;flipH=1;direction=north;" vertex="1" parent="WIyWlLk6GJQsqaUBKTNV-1">
          <mxGeometry x="34.75" y="-1145" width="10" height="8" as="geometry" />
        </mxCell>
        <mxCell id="jsOQoZ8nV0DmSQKEKL1x-19" value="" style="triangle;whiteSpace=wrap;html=1;flipH=1;direction=south;" vertex="1" parent="WIyWlLk6GJQsqaUBKTNV-1">
          <mxGeometry x="784.75" y="-679" width="10" height="8" as="geometry" />
        </mxCell>
        <mxCell id="jsOQoZ8nV0DmSQKEKL1x-20" value="" style="triangle;whiteSpace=wrap;html=1;flipH=1;direction=south;" vertex="1" parent="WIyWlLk6GJQsqaUBKTNV-1">
          <mxGeometry x="686.75" y="-728" width="10" height="8" as="geometry" />
        </mxCell>
        <mxCell id="jsOQoZ8nV0DmSQKEKL1x-21" value="" style="triangle;whiteSpace=wrap;html=1;flipH=1;direction=south;" vertex="1" parent="WIyWlLk6GJQsqaUBKTNV-1">
          <mxGeometry x="916.75" y="-912" width="10" height="8" as="geometry" />
        </mxCell>
      </root>
    </mxGraphModel>
  </diagram>
</mxfile>
